<?xml version="1.0" encoding="iso-8859-1"?>
<!-- Generator: Adobe Illustrator 19.0.0, SVG Export Plug-In . SVG Version: 6.00 Build 0)  -->
<svg version="1.1" id="Layer_1" xmlns="http://www.w3.org/2000/svg" xmlns:xlink="http://www.w3.org/1999/xlink" x="0px" y="0px"
	 viewBox="0 0 512 512" style="enable-background:new 0 0 512 512;" xml:space="preserve">
<g>
	<path style="fill:#F95428;" d="M456.426,239.373c19.58,32.272,24.336,68.087,21.776,105.138
		c-1.479,21.401-5.364,42.349-13.851,62.182c-10.673,24.921-26.246,45.969-52.988,54.534c-47.415,15.176-90.834-2.55-103.483-60.814
		c-3.256-14.988-4.735-30.153-1.49-45.373l0.022-0.11c0.706-3.311,5.342-3.697,6.523-0.53c2.991,8.035,7.549,15.01,12.979,21.544
		c15.86,19.061,39.932,24.303,65.99,14.547c34.612-12.957,56.84-44.28,58.242-82.303c0.585-16.015-1.093-31.809-6.468-46.984
		c-8.863-25.021-38.872-33.883-59.158-16.335c-9.679,8.377-16.909,19.734-24.579,30.23c-8.344,11.412-15.695,23.542-23.884,35.075
		c-8.3,11.721-19.017,18.619-32.449,20.209c-1.998,0.232-14.006,0.221-25.065,0.188c-6.865-0.022-11.534,6.975-8.852,13.288
		c0.662,1.567,1.291,3.134,1.854,4.724c14.216,39.656,14.403,78.34-10.893,113.946c-12.957,18.222-29.557,33.321-52.282,37.989
		c-50.196,10.309-92.611-4.658-126.693-42.525c-29.369-32.658-43.188-72.071-47.271-115.215
		c-1.004-10.606-1.082-21.312-1.236-31.985c0-0.033,0-0.066,0-0.099c-0.044-4.271,6.026-5.364,7.527-1.369
		c0.022,0.055,0.044,0.11,0.066,0.166c7.417,21.125,13.884,42.625,22.361,63.308c7.108,17.339,16.324,34.049,32.791,44.678
		c25.142,16.246,53.121,21.401,82.523,18.641c9.183-0.872,18.575-3.101,27.118-6.567c31.323-12.726,42.559-50.317,24.083-78.705
		c-8.708-13.399-22.184-17.692-37.051-18.542c-7.571-0.43-15.838,3.642-22.824,0.629c-26.599-11.501-31.124-37.051-34.899-60.637
		c-0.773-4.79,3.157-9.017,7.991-8.609c4.889,0.408,9.635,0.806,14.359,1.258c14.922,1.424,29.601,0.706,43.806-4.602
		c11.136-4.161,19.293-11.699,25.142-21.953c2.914-5.099,2.759-11.423-0.221-16.478c-10.066-17.063-24.833-23.707-45.053-20.076
		c-23.244,4.183-44.148,14.48-65.019,24.877l-0.088,0.044c-4.845,2.406-10.728,0.684-13.509-3.962
		c-7.616-12.759-15.176-25.407-22.858-38.265c-2.163-3.62-1.38-8.3,1.898-10.949c9.679-7.814,19.878-14.635,31.157-19.844
		c24.877-11.467,50.913-18.288,78.429-16.82c34.446,1.832,57.657,21.566,66.994,54.964c7.097,25.374-0.883,47.624-13.244,69.124
		c-7.053,12.262-15.617,23.111-28.531,29.8c-1.291,0.673-2.373,1.788-4.624,3.51c10.353,4.006,19.635,8.443,29.391,11.158
		c11.997,3.355,23.476,0.342,31.588-9.139c7.726-9.028,14.271-19.149,20.628-29.226c8.576-13.609,15.926-28.023,24.8-41.422
		c14.182-21.434,35.02-30.319,60.394-32.14C415.369,190.876,438.844,210.379,456.426,239.373z"/>
	<path style="fill:#F95428;" d="M371.089,45.387c2.803,2.803,2.803,7.351,0,10.154L336.09,90.55c-2.803,2.803-7.351,2.803-10.154,0
		l-35.009-35.009c-2.803-2.803-2.803-7.351,0-10.154l35.009-34.998c2.803-2.814,7.351-2.814,10.154,0L371.089,45.387z"/>
	<path style="fill:#F95428;" d="M442.42,110.836c6.49,9.558,5.85,12.041-2.936,19.16c-25.528,20.672-54.5,32.89-87.357,36.278
		c-26.864,2.77-51.697-1.446-73.407-18.41c-25.043-19.569-40.152-44.898-43.684-76.707c-0.618-5.552,4.238-8.918,6.534-5.209
		c7.064,11.401,16.081,21.158,26.4,29.877c29.259,24.734,61.542,28.442,95.58,12.35c13.631-6.435,25.915-15.882,38.364-24.601
		c11.92-8.366,11.732-8.785,20.705,2.152C429.375,93.972,436.449,102.04,442.42,110.836z"/>
</g>
<g>
	<path style="fill:#333333;" d="M178.136,512c-39.181,0.001-73.589-16.225-102.611-48.47
		c-28.581-31.782-44.726-71.025-49.359-119.973c-0.958-10.116-1.1-20.309-1.237-30.167l-0.035-2.478c0-0.041-0.001-0.081-0.001-0.12
		c-0.062-5.978,4.016-10.913,9.917-12.016c5.893-1.101,11.473,2,13.604,7.549c0.053,0.134,0.129,0.33,0.161,0.422
		c2.395,6.822,4.721,13.766,6.969,20.483c4.712,14.071,9.582,28.62,15.242,42.428c5.993,14.621,14.199,30.909,29.62,40.862
		c22.064,14.256,48.056,20.097,77.261,17.354c8.537-0.81,17.108-2.884,24.779-5.996c12.423-5.047,21.823-15.189,25.787-27.824
		c4.063-12.95,2.046-27.054-5.529-38.694c-6.091-9.371-15.522-13.933-30.586-14.794c-2.016-0.116-4.534,0.311-7.198,0.76
		c-5.312,0.897-11.922,2.014-18.432-0.795c-31.245-13.509-36.186-44.385-39.794-66.93c-0.775-4.802,0.68-9.612,3.992-13.185
		c3.316-3.576,8.012-5.397,12.869-4.98c4.726,0.394,9.621,0.803,14.452,1.266c15.819,1.509,28.566,0.202,40.118-4.116
		c8.902-3.327,15.722-9.313,20.85-18.3c1.415-2.476,1.352-5.606-0.161-8.173c-8.366-14.184-19.614-19.158-36.458-16.133
		c-22.439,4.038-42.953,14.256-62.791,24.14c-8.757,4.346-19.426,1.218-24.391-7.076c-5.594-9.37-11.152-18.673-16.75-28.043
		l-6.111-10.229c-4.264-7.135-2.629-16.436,3.801-21.634c11.167-9.014,21.924-15.857,32.89-20.922
		c28.74-13.248,55.674-18.993,82.34-17.571c37.619,2.001,64.087,23.664,74.525,61.001c8.515,30.447-3.03,56.33-14.04,75.48
		c-4.653,8.091-11.761,18.953-22.888,27.339c4.821,1.955,9.49,3.727,14.167,5.028c6.438,1.8,15.66,2.126,23.078-6.545
		c7.333-8.568,13.605-18.257,19.918-28.261c3.722-5.907,7.311-12.148,10.782-18.186c4.447-7.735,9.046-15.732,14.117-23.39
		c14.508-21.926,36.327-33.645,66.703-35.825c35.847-2.583,63.918,13.703,85.801,49.79c18.459,30.423,25.968,66.406,22.957,110.001
		c-1.718,24.865-6.461,46.084-14.5,64.867c-13.547,31.633-32.542,50.984-58.074,59.16c-27.488,8.799-52.823,7.208-73.27-4.598
		c-20.413-11.786-34.531-33.345-40.826-62.343c-4.095-18.85-4.576-34.355-1.511-48.786l0.008-0.04c0.01-0.046,0.02-0.094,0.029-0.14
		c1.094-5.132,5.355-8.84,10.602-9.226c5.215-0.372,9.949,2.642,11.772,7.531c2.393,6.428,6.075,12.51,11.589,19.146
		c13.634,16.383,33.777,20.677,56.722,12.085c31.343-11.733,51.603-40.417,52.873-74.856c0.6-16.458-1.361-30.824-5.999-43.916
		c-3.406-9.613-10.769-16.559-20.202-19.054c-9.035-2.391-18.413-0.121-25.737,6.216c-7.113,6.156-12.871,14.242-18.967,22.802
		c-1.446,2.031-2.888,4.056-4.346,6.052c-4.42,6.046-8.677,12.485-12.795,18.711c-3.542,5.356-7.204,10.895-11.023,16.273
		c-9.801,13.84-22.663,21.796-38.227,23.637c-2.03,0.235-8.604,0.297-26.062,0.245c-0.002,0-0.003,0-0.006,0
		c-0.467,0-0.832,0.196-1.088,0.584c-0.252,0.377-0.289,0.778-0.115,1.19c0.84,1.987,1.486,3.633,2.04,5.198
		c16.779,46.809,12.875,86.563-11.949,121.503c-16.541,23.261-35.305,36.771-57.365,41.304
		C199.083,510.875,188.441,511.999,178.136,512z M42.505,340.414c0.045,0.529,0.093,1.056,0.142,1.584
		c4.286,45.285,19.065,81.416,45.184,110.46c32.443,36.046,72.439,49.486,118.874,39.953c17.764-3.65,33.204-14.993,47.202-34.677
		c21.455-30.198,24.676-64.988,9.847-106.355c-0.453-1.28-0.986-2.636-1.686-4.297c-2.341-5.51-1.759-11.797,1.565-16.805
		c3.321-5.001,8.88-7.982,14.88-7.982c0.02,0,0.039,0,0.059,0c5.979,0.019,21.867,0.065,24.142-0.138
		c10.784-1.277,19.508-6.762,26.589-16.764c3.665-5.163,7.251-10.584,10.719-15.828c4.223-6.387,8.589-12.991,13.238-19.349
		c1.417-1.939,2.82-3.909,4.226-5.885c6.393-8.979,13.004-18.263,21.619-25.719c11.53-9.975,26.399-13.51,40.805-9.701
		c14.586,3.859,26.389,14.899,31.572,29.532c5.346,15.094,7.615,31.465,6.938,50.05c-1.521,41.243-25.896,75.634-63.613,89.754
		c-29.61,11.084-57.04,4.888-75.257-17.005c-2.501-3.01-4.726-5.995-6.691-8.98c-0.049,7.948,0.982,16.61,3.108,26.396
		c5.278,24.316,16.665,42.13,32.925,51.519c16.296,9.409,37.023,10.505,59.945,3.168c20.976-6.717,36.197-22.576,47.901-49.909
		c7.295-17.049,11.615-36.51,13.204-59.494c2.769-40.069-3.969-72.868-20.595-100.274c-18.861-31.104-40.591-44.016-70.459-41.863
		c-25.257,1.813-42.442,10.853-54.086,28.451c-4.784,7.224-9.251,14.991-13.57,22.504c-3.553,6.18-7.227,12.569-11.13,18.763
		c-6.653,10.544-13.29,20.784-21.343,30.195c-10.067,11.765-24.686,16.042-40.106,11.728c-7.175-1.997-13.83-4.747-20.876-7.66
		c-3.01-1.244-6.122-2.531-9.273-3.75c-2.792-1.081-4.783-3.586-5.207-6.55c-0.423-2.965,0.788-5.927,3.167-7.746
		c0.735-0.562,1.328-1.052,1.843-1.475c1.234-1.014,2.399-1.973,3.981-2.799c9.75-5.049,17.51-13.245,25.184-26.588
		c14.148-24.606,17.871-43.379,12.449-62.768c-8.497-30.392-29.059-47.311-59.463-48.928c-23.917-1.274-48.292,3.981-74.523,16.072
		c-9.707,4.484-19.333,10.623-29.423,18.768c-0.032,0.025-0.062,0.145,0.008,0.263l6.111,10.228
		c5.6,9.371,11.159,18.676,16.749,28.04c0.552,0.92,1.748,1.273,2.72,0.79c19.987-9.956,42.551-21.196,67.322-25.654
		c23.689-4.255,41.738,3.827,53.648,24.018c4.525,7.675,4.631,17.173,0.278,24.791c-7.024,12.313-16.927,20.927-29.432,25.599
		c-13.989,5.228-29.077,6.846-47.489,5.089c-4.386-0.421-8.864-0.799-13.223-1.163c4.125,25.502,8.875,44.246,29.844,53.312
		c2.011,0.868,5.46,0.286,9.111-0.331c3.29-0.555,7.018-1.188,10.898-0.965c20.29,1.16,34.526,8.453,43.522,22.296
		c10.279,15.793,12.995,34.994,7.449,52.675c-5.448,17.367-18.333,31.294-35.356,38.209c-9.145,3.71-19.327,6.177-29.451,7.139
		c-33.01,3.096-62.542-3.609-87.799-19.929c-19.378-12.507-29.395-32.483-35.956-48.49C50.676,364.25,46.491,352.23,42.505,340.414z
		 M32.95,312.24c0.009,0.024,0.019,0.049,0.029,0.073C32.967,312.283,32.957,312.256,32.95,312.24z M41.448,310.614
		c0,0.008,0,0.02,0,0.034C41.448,310.636,41.448,310.625,41.448,310.614z"/>
	<path style="fill:#333333;" d="M337.592,175.328c-24.974,0-46.011-6.907-63.969-20.94c-27.374-21.39-43.125-49.086-46.814-82.316
		c-0.767-6.889,2.885-13.346,8.685-15.349c4.975-1.717,10.244,0.236,13.112,4.867l0,0c6.159,9.939,14.24,19.07,24.706,27.914
		c26.635,22.518,54.993,26.177,86.701,11.19c10.571-4.991,20.724-12.222,30.543-19.216c2.204-1.569,4.405-3.138,6.61-4.682
		l1.06-0.745c6.532-4.594,10.848-7.628,16.564-6.804c5.688,0.819,9.087,4.961,14.231,11.231c1.439,1.756,2.889,3.501,4.341,5.246
		c5.404,6.5,10.992,13.221,15.909,20.465c8.799,12.957,7.687,20.306-4.574,30.24c-26.878,21.765-57.737,34.577-91.72,38.081
		C347.689,175.054,342.562,175.328,337.592,175.328z M246.161,86.037c5.712,21.856,18.129,40.047,37.656,55.305
		c18.245,14.256,39.691,19.562,67.46,16.698c31.168-3.215,58.318-14.493,82.998-34.477c2.341-1.897,3.461-2.978,3.994-3.586
		c-0.313-0.704-1.036-2.045-2.697-4.491c-4.464-6.578-9.554-12.698-14.942-19.178c-1.477-1.776-2.952-3.551-4.414-5.334
		c-1.267-1.545-2.743-3.345-3.841-4.548c-1.278,0.812-3.021,2.037-4.624,3.167l-1.081,0.759c-2.178,1.524-4.342,3.067-6.51,4.611
		c-10.41,7.415-21.174,15.082-33.076,20.701c-37.118,17.548-73.24,12.876-104.459-13.515
		C256.444,96.923,250.981,91.582,246.161,86.037z M234.532,70.305c0.002,0.004,0.006,0.009,0.008,0.013
		c-0.002-0.003-0.004-0.007-0.007-0.011C234.533,70.308,234.533,70.307,234.532,70.305z"/>
	<path style="fill:#333333;" d="M331.013,100.931c-4.129,0-8.011-1.608-10.93-4.527l-35.009-35.009
		c-6.027-6.026-6.027-15.834-0.001-21.861l35.011-34.999C322.994,1.615,326.879,0,331.013,0c4.134,0,8.021,1.615,10.941,4.547
		l34.987,34.987c2.919,2.919,4.527,6.801,4.527,10.93s-1.608,8.011-4.527,10.93l-34.998,35.008
		C339.024,99.323,335.143,100.931,331.013,100.931z M297.557,50.464l33.456,33.456l33.445-33.456l-33.445-33.445L297.557,50.464z
		 M330.236,16.242c0.001,0.001,0.002,0.001,0.003,0.002L330.236,16.242z M331.801,16.231l-0.003,0.002
		C331.799,16.233,331.8,16.232,331.801,16.231z"/>
</g>
<g>
</g>
<g>
</g>
<g>
</g>
<g>
</g>
<g>
</g>
<g>
</g>
<g>
</g>
<g>
</g>
<g>
</g>
<g>
</g>
<g>
</g>
<g>
</g>
<g>
</g>
<g>
</g>
<g>
</g>
</svg>
